<svg width="25" height="25" viewBox="0 0 25 25" fill="none" xmlns="http://www.w3.org/2000/svg">
<path d="M14.9338 16.7288C17.9538 17.2988 20.0938 18.7588 20.0938 20.4688V22.4688H4.09375V20.4688C4.09375 18.7588 6.23375 17.2988 9.25375 16.7288L12.0938 21.4688L14.9338 16.7288ZM8.09375 8.46876H16.0938V10.4688C16.0938 11.5296 15.6723 12.547 14.9222 13.2972C14.172 14.0473 13.1546 14.4688 12.0938 14.4688C11.0329 14.4688 10.0155 14.0473 9.26532 13.2972C8.51518 12.547 8.09375 11.5296 8.09375 10.4688V8.46876ZM8.09375 7.46876L8.50375 3.36876C8.52862 3.12124 8.64486 2.89187 8.82977 2.72546C9.01468 2.55904 9.25498 2.46752 9.50375 2.46876H14.6938C15.2038 2.46876 15.6338 2.85876 15.6838 3.36876L16.0938 7.46876H8.09375ZM12.0938 3.46876H11.0938V4.46876H10.0938V5.46876H11.0938V6.46876H12.0938V5.46876H13.0938V4.46876H12.0938V3.46876Z" fill="white"/>
</svg>
