<svg width="24" height="24" viewBox="0 0 24 24" fill="none" xmlns="http://www.w3.org/2000/svg">
<path d="M8 6C8.11325 6.21324 8.21538 6.4322 8.306 6.656C8.45693 7.07056 8.51458 7.5133 8.47482 7.95268C8.43506 8.39206 8.29889 8.81727 8.076 9.198C7.94692 9.40174 7.8074 9.59867 7.658 9.788L7.255 10.327C6.805 10.927 6.58 11.227 6.417 11.556C6.25224 11.8881 6.13445 12.2415 6.067 12.606C6 12.965 6 13.34 6 14.092V16C6 18.828 6 20.243 6.879 21.121C7.757 22 9.172 22 12 22C14.828 22 16.243 22 17.121 21.121C18 20.243 18 18.828 18 16V14.092C18 13.342 18 12.966 17.933 12.605C17.8656 12.2405 17.7478 11.8871 17.583 11.555C17.42 11.227 17.195 10.927 16.745 10.327L16.342 9.789C16.1923 9.59969 16.0524 9.40276 15.923 9.199C15.7 8.81814 15.5637 8.39276 15.5239 7.95319C15.4842 7.51362 15.5419 7.0707 15.693 6.656C15.753 6.495 15.835 6.33 16 6M12 13V18M9.5 15.5H14.5M9.068 2H14.932C15.852 2 16.314 2 16.6 2.293C17.133 2.839 17.133 5.161 16.6 5.707C16.313 6 15.853 6 14.932 6H9.068C8.148 6 7.687 6 7.4 5.707C6.867 5.161 6.867 2.839 7.4 2.293C7.686 2 8.147 2 9.068 2Z" stroke="#FD915A" stroke-width="1.5" stroke-linecap="round" stroke-linejoin="round"/>
</svg>
